<svg width="28" height="28" viewBox="0 0 28 28" fill="none" xmlns="http://www.w3.org/2000/svg">
<circle cx="14" cy="14" r="14" fill="#0074BC" fill-opacity="0.2"/>
<path fill-rule="evenodd" clip-rule="evenodd" d="M14.166 7.33325C17.1987 7.33325 19.666 9.81925 19.666 12.8753C19.666 16.6319 15.362 20.3333 14.166 20.3333C12.97 20.3333 8.66602 16.6319 8.66602 12.8753C8.66602 9.81925 11.1333 7.33325 14.166 7.33325ZM14.166 8.33325C11.6847 8.33325 9.66602 10.3713 9.66602 12.8753C9.66602 16.0613 13.4153 19.1653 14.166 19.3306C14.9167 19.1646 18.666 16.0606 18.666 12.8753C18.666 10.3713 16.6473 8.33325 14.166 8.33325ZM14.1667 10.6666C15.3613 10.6666 16.3333 11.6386 16.3333 12.8339C16.3333 14.0286 15.3613 14.9999 14.1667 14.9999C12.972 14.9999 12 14.0286 12 12.8339C12 11.6386 12.972 10.6666 14.1667 10.6666ZM14.1667 11.6666C13.5233 11.6666 13 12.1899 13 12.8339C13 13.4773 13.5233 13.9999 14.1667 13.9999C14.81 13.9999 15.3333 13.4773 15.3333 12.8339C15.3333 12.1899 14.81 11.6666 14.1667 11.6666Z" fill="#0074BC"/>
</svg>
