<svg width="96" height="56" viewBox="0 0 96 56" fill="none" xmlns="http://www.w3.org/2000/svg">
<path d="M54.0845 29.9082C54.0845 22.9041 55.1662 16.8878 57.3296 11.8592C59.493 6.65103 62.2873 2.43061 65.7127 -0.80204C69.138 -4.21428 73.0141 -6.63877 77.3408 -8.07551C81.8479 -9.69183 86.2648 -10.5 90.5915 -10.5V-1.07142C85.9042 -1.07142 81.4873 0.544907 77.3408 3.77756C73.3746 6.83061 71.031 11.051 70.3099 16.4388C70.8507 16.2592 71.4817 16.0796 72.2028 15.9C72.7437 15.7204 73.3746 15.5408 74.0958 15.3612C74.9972 15.1816 75.9887 15.0918 77.0704 15.0918C82.4789 15.0918 86.9859 17.1572 90.5915 21.2878C94.1972 25.2388 96 29.9082 96 35.2959C96 40.6837 94.107 45.4429 90.3211 49.5735C86.7155 53.5245 81.8479 55.5 75.7183 55.5C68.8676 55.5 63.5493 52.9857 59.7634 47.9571C55.9775 42.749 54.0845 36.7327 54.0845 29.9082ZM0 29.9082C0 22.9041 1.08169 16.8878 3.24507 11.8592C5.40845 6.65103 8.20282 2.43061 11.6282 -0.80204C15.0535 -4.21428 18.9296 -6.63877 23.2563 -8.07551C27.7634 -9.69183 32.1803 -10.5 36.507 -10.5V-1.07142C31.8197 -1.07142 27.4028 0.544907 23.2563 3.77756C19.2901 6.83061 16.9465 11.051 16.2254 16.4388C16.7662 16.2592 17.3972 16.0796 18.1183 15.9C18.6592 15.7204 19.2901 15.5408 20.0113 15.3612C20.9127 15.1816 21.9042 15.0918 22.9859 15.0918C28.3944 15.0918 32.9014 17.1572 36.507 21.2878C40.1127 25.2388 41.9155 29.9082 41.9155 35.2959C41.9155 40.6837 40.0225 45.4429 36.2366 49.5735C32.631 53.5245 27.7634 55.5 21.6338 55.5C14.7831 55.5 9.46479 52.9857 5.67887 47.9571C1.89296 42.749 0 36.7327 0 29.9082Z" fill="#FF0000" fill-opacity="0.1"/>
</svg>
