<svg width="21" height="21" viewBox="0 0 21 21" fill="none" xmlns="http://www.w3.org/2000/svg">
<path fill-rule="evenodd" clip-rule="evenodd" d="M10.5169 2.3938C15.1119 2.3938 18.8503 6.13213 18.8503 10.7271C18.8503 15.3221 15.1119 19.0605 10.5169 19.0605C5.92193 19.0605 2.18359 15.3221 2.18359 10.7271C2.18359 6.13213 5.92193 2.3938 10.5169 2.3938ZM10.5169 3.6438C6.61109 3.6438 3.43359 6.8213 3.43359 10.7271C3.43359 14.633 6.61109 17.8105 10.5169 17.8105C14.4228 17.8105 17.6003 14.633 17.6003 10.7271C17.6003 6.8213 14.4228 3.6438 10.5169 3.6438ZM10.2346 6.63997C10.5804 6.63997 10.8596 6.91997 10.8596 7.26497V10.95L13.6971 12.6416C13.9929 12.8191 14.0904 13.2025 13.9138 13.4991C13.7963 13.695 13.5888 13.8041 13.3763 13.8041C13.2671 13.8041 13.1571 13.7758 13.0563 13.7166L9.91459 11.8425C9.72626 11.7291 9.60959 11.525 9.60959 11.305V7.26497C9.60959 6.91997 9.88959 6.63997 10.2346 6.63997Z" fill="#4A63FF"/>
</svg>
